<?xml version="1.0" encoding="UTF-8" standalone="no"?>
<!-- Created with Inkscape (http://www.inkscape.org/) -->

<svg
   xmlns:dc="http://purl.org/dc/elements/1.1/"
   xmlns:cc="http://creativecommons.org/ns#"
   xmlns:rdf="http://www.w3.org/1999/02/22-rdf-syntax-ns#"
   xmlns:svg="http://www.w3.org/2000/svg"
   xmlns="http://www.w3.org/2000/svg"
   xmlns:sodipodi="http://sodipodi.sourceforge.net/DTD/sodipodi-0.dtd"
   xmlns:inkscape="http://www.inkscape.org/namespaces/inkscape"
   width="744.09448819"
   height="1052.3622047"
   id="svg2"
   version="1.1"
   inkscape:version="0.48.5 r10040"
   sodipodi:docname="fitcoach_logo.svg">
  <defs
     id="defs4" />
  <sodipodi:namedview
     id="base"
     pagecolor="#ffffff"
     bordercolor="#666666"
     borderopacity="1.0"
     inkscape:pageopacity="0.0"
     inkscape:pageshadow="2"
     inkscape:zoom="0.62"
     inkscape:cx="100.71281"
     inkscape:cy="438.44684"
     inkscape:document-units="px"
     inkscape:current-layer="layer5"
     showgrid="false"
     showguides="false"
     inkscape:guide-bbox="true"
     inkscape:snap-grids="true"
     inkscape:window-width="1440"
     inkscape:window-height="785"
     inkscape:window-x="0"
     inkscape:window-y="0"
     inkscape:window-maximized="1">
    <sodipodi:guide
       orientation="0,1"
       position="-431.42857,1048.5714"
       id="guide2985" />
    <sodipodi:guide
       orientation="1,0"
       position="370,792.85714"
       id="guide2987" />
    <sodipodi:guide
       orientation="0,1"
       position="-148.57143,525.71429"
       id="guide2989" />
    <sodipodi:guide
       orientation="0,1"
       position="-574.28571,-2.8571429"
       id="guide2997" />
    <sodipodi:guide
       orientation="0,1"
       position="-411.42857,897.14286"
       id="guide3771" />
    <sodipodi:guide
       orientation="0,1"
       position="-394.28571,160"
       id="guide3773" />
    <sodipodi:guide
       orientation="1,0"
       position="737.14286,422.85714"
       id="guide3775" />
    <sodipodi:guide
       orientation="1,0"
       position="0,445.71429"
       id="guide3777" />
    <sodipodi:guide
       orientation="0,1"
       position="-1277.1429,725.71429"
       id="guide3779" />
    <sodipodi:guide
       orientation="0,1"
       position="428.30468,349.51278"
       id="guide3781" />
    <sodipodi:guide
       orientation="1,0"
       position="174.28571,897.14286"
       id="guide3783" />
    <sodipodi:guide
       orientation="1,0"
       position="551.42857,348.57143"
       id="guide3785" />
    <sodipodi:guide
       orientation="1,0"
       position="265,271.42857"
       id="guide3887" />
    <sodipodi:guide
       orientation="1,0"
       position="460.71429,257.85714"
       id="guide3889" />
    <sodipodi:guide
       orientation="1,0"
       position="150,570.71429"
       id="guide3891" />
    <sodipodi:guide
       orientation="1,0"
       position="575.71429,525.71429"
       id="guide3893" />
    <sodipodi:guide
       orientation="0,1"
       position="167.23214,507.41072"
       id="guide3895" />
  </sodipodi:namedview>
  <metadata
     id="metadata7">
    <rdf:RDF>
      <cc:Work
         rdf:about="">
        <dc:format>image/svg+xml</dc:format>
        <dc:type
           rdf:resource="http://purl.org/dc/dcmitype/StillImage" />
        <dc:title></dc:title>
      </cc:Work>
    </rdf:RDF>
  </metadata>
  <g
     id="g3767"
     inkscape:groupmode="layer"
     inkscape:label="background_line"
     style="display:none">
    <path
       transform="matrix(1.1697001,0,0,0.96880389,-84.512054,32.295084)"
       sodipodi:open="true"
       sodipodi:end="10.075763"
       sodipodi:start="3.7987667"
       d="m 142.00669,279.11528 a 311.42856,377.14285 0 1 1 -1.17271,1.85239"
       sodipodi:ry="377.14285"
       sodipodi:rx="311.42856"
       sodipodi:cy="509.50504"
       sodipodi:cx="388.57144"
       id="path3769"
       style="fill:#090606;fill-opacity:1;stroke:#000000;stroke-width:9.39387512;stroke-linecap:round;stroke-linejoin:round;stroke-miterlimit:4;stroke-opacity:1;stroke-dasharray:none;stroke-dashoffset:0"
       sodipodi:type="arc" />
  </g>
  <g
     inkscape:label="background"
     inkscape:groupmode="layer"
     id="layer1"
     style="display:inline" />
  <g
     inkscape:label="head_line"
     id="g3792"
     inkscape:groupmode="layer"
     style="display:none">
    <path
       transform="matrix(0.89352795,0,0,0.87017448,2.3770837,-24.735614)"
       sodipodi:open="true"
       sodipodi:end="10.075763"
       sodipodi:start="3.7987667"
       d="m 300.58752,381.12442 a 140,140 0 1 1 -0.52718,0.68763"
       sodipodi:ry="140"
       sodipodi:rx="140"
       sodipodi:cy="466.64789"
       sodipodi:cx="411.42856"
       id="path3794"
       style="fill:#ffffff;fill-opacity:0;stroke:#000000;stroke-width:11.34077549;stroke-linecap:round;stroke-linejoin:round;stroke-miterlimit:4;stroke-opacity:1;stroke-dasharray:none;stroke-dashoffset:0"
       sodipodi:type="arc" />
  </g>
  <g
     inkscape:groupmode="layer"
     id="layer2"
     inkscape:label="head"
     style="display:inline" />
  <g
     inkscape:label="body_line"
     id="g3897"
     inkscape:groupmode="layer"
     style="display:none">
    <path
       sodipodi:nodetypes="cssssscsssccc"
       inkscape:connector-curvature="0"
       id="path3899"
       d="m 543.35814,847.48454 32.38543,-281.27196 c 0.0312,-0.27114 -0.95265,-3.90296 -2.65272,-6.56749 -1.73014,-2.71165 -4.18843,-4.45672 -4.38287,-4.6378 -0.17483,-0.16281 -3.42937,-2.51915 -7.19541,-3.80033 -4.53873,-1.54406 -9.73517,-2.04213 -10.05807,-2.04213 l -380.67736,0 c -4.05292,0 -5.15965,0.90646 -7.3741,1.75445 -2.52145,0.96555 -4.01926,2.16605 -5.39551,3.23513 -1.28129,0.99534 -3.27952,3.23274 -4.34856,4.663 -1.7067,2.2834 -3.10536,4.21324 -3.59896,7.39517 l 36.41075,274.75898 c 122.85108,63.16416 244.02278,62.88067 356.88738,6.51298 z"
       style="fill:#960016;fill-opacity:0;stroke:#000000;stroke-width:9.65151691;stroke-linecap:round;stroke-linejoin:round;stroke-miterlimit:4;stroke-opacity:1;stroke-dasharray:none;stroke-dashoffset:0;display:inline" />
  </g>
  <g
     inkscape:groupmode="layer"
     id="layer3"
     inkscape:label="body"
     style="display:inline" />
  <g
     inkscape:groupmode="layer"
     id="layer4"
     inkscape:label="whistle" />
  <g
     inkscape:groupmode="layer"
     id="layer5"
     inkscape:label="cap">
    <g
       id="g3802"
       inkscape:export-filename="/Users/wilmor24/dev/art/ic_launcher_web.png"
       inkscape:export-xdpi="67.650002"
       inkscape:export-ydpi="67.650002">
      <path
         transform="matrix(1.0769305,0,0,0.88928412,-51.760471,81.20606)"
         sodipodi:open="true"
         sodipodi:end="10.075763"
         sodipodi:start="3.7987667"
         d="m 142.00669,279.11528 a 311.42856,377.14285 0 1 1 -1.17271,1.85239"
         sodipodi:ry="377.14285"
         sodipodi:rx="311.42856"
         sodipodi:cy="509.50504"
         sodipodi:cx="388.57144"
         id="path2995"
         style="display:inline;fill:#009688;fill-opacity:1;stroke:#000000;stroke-width:9.39387512000000058;stroke-linecap:round;stroke-linejoin:round;stroke-miterlimit:4;stroke-opacity:0;stroke-dasharray:none;stroke-dashoffset:0"
         sodipodi:type="arc" />
      <path
         transform="matrix(0.89352795,0,0,0.87017448,2.3770837,-24.735614)"
         sodipodi:open="true"
         sodipodi:end="10.075763"
         sodipodi:start="3.7987667"
         d="m 300.58752,381.12442 a 140,140 0 1 1 -0.52718,0.68763"
         sodipodi:ry="140"
         sodipodi:rx="140"
         sodipodi:cy="466.64789"
         sodipodi:cx="411.42856"
         id="path3790"
         style="display:inline;fill:#ffffff;fill-opacity:1;stroke:#000000;stroke-width:11.34077549000000040;stroke-linecap:round;stroke-linejoin:round;stroke-miterlimit:4;stroke-opacity:0;stroke-dasharray:none;stroke-dashoffset:0"
         sodipodi:type="arc" />
      <path
         sodipodi:nodetypes="cssssscsssccc"
         inkscape:connector-curvature="0"
         id="path3885"
         d="m 543.33332,820.53764 31.14353,-250.52788 c 0.28246,-2.27221 0.28493,-3.951 -0.97297,-7.44383 -1.0994,-3.05271 -1.99053,-4.77654 -4.38227,-7.16976 -2.42839,-2.4299 -3.83232,-3.62037 -7.54797,-4.81938 -3.65684,-1.18003 -6.46326,-1.62447 -10.14507,-1.62533 l -378.68046,-0.0884 c -4.05237,0 -7.97111,0.5259 -10.22924,1.26089 -3.7711,1.22744 -5.524,2.16353 -7.83932,4.60077 -1.9428,2.04512 -2.55346,3.47236 -3.21407,7.10429 -0.58457,3.21386 -0.39783,4.38381 -0.36102,7.78169 l 35.39057,248.57642 c 108.69204,68.18429 240.45368,70.72574 356.83829,2.35052 z"
         style="display:inline;fill:#ffffff;fill-opacity:1;stroke:#000000;stroke-width:9.71006775000000033;stroke-linecap:round;stroke-linejoin:round;stroke-miterlimit:4;stroke-opacity:0;stroke-dasharray:none;stroke-dashoffset:0" />
      <path
         sodipodi:nodetypes="cccccccccccc"
         inkscape:connector-curvature="0"
         id="rect3967"
         d="M 255.44735,548.83011 362.4375,664.81234 c 0.7931,0.87011 2.2113,1.1161 3.1875,0.53125 l 2.375,-1.46875 2.375,1.46875 c 0.9762,0.58485 2.3944,0.33886 3.1875,-0.53125 L 480.9062,548.123 l -28.76951,0.35355 -78.60783,90.15254 c -3.56671,4.45106 -8.6249,4.71493 -12.59993,-0.27202 l -77.06562,-89.88052 z"
         style="fill:#727272;fill-opacity:1;stroke:#000000;stroke-width:10.17500019000000044;stroke-linecap:round;stroke-linejoin:round;stroke-miterlimit:4;stroke-opacity:0;stroke-dasharray:none;stroke-dashoffset:0;display:inline" />
      <path
         sodipodi:nodetypes="sccscsssscsss"
         inkscape:connector-curvature="0"
         id="rect3906"
         d="m 367.67613,656.03771 c -12.47668,-0.1752 -24.86979,4.94238 -33.07888,14.87001 l -0.16096,0.18775 c -13.65457,16.72625 0.35193,36.33017 8.2928,58.44875 3.07281,8.55914 1.22953,23.1541 1.85408,24.08903 l -1.45463,4.50433 c -0.43886,1.35928 1.21512,2.55343 2.73646,2.55343 l 36.76053,0 c 1.52146,0 3.26661,-1.58685 3.22141,-3.00586 l -0.9698,-30.44524 c 3.34581,-2.17526 9.01574,-6.67282 12.4083,-9.12934 15.28035,-11.06476 12.69597,-41.21106 -5.2227,-54.11215 -7.27935,-5.24106 -15.84991,-7.84083 -24.38661,-7.96071 z"
         style="fill:#ff5722;fill-opacity:1;stroke:#000000;stroke-width:12.43934250000000041;stroke-linecap:round;stroke-linejoin:round;stroke-miterlimit:4;stroke-opacity:0;stroke-dasharray:none;stroke-dashoffset:0;display:inline" />
      <path
         sodipodi:nodetypes="scccccccccsccss"
         inkscape:connector-curvature="0"
         id="path3790-9-4"
         d="m 364.48694,258.07664 c -38.31194,0.27928 -76.06528,14.45854 -101.2858,41.27468 l -0.5011,0.51764 c -18.0483,19.43773 -26.65067,42.36681 -26.43329,65.05871 l -39.49328,38.98618 c -4.37786,4.21129 -0.98447,7.7969 3.22581,11.08832 2.75036,-17.13883 58.51533,2.84686 93.26816,28.11582 10.58825,4.5243 28.87487,4.28242 38.20926,-5.99368 l 17.41335,-19.17979 c 2.33976,-2.2507 27.6866,-40.44904 49.59691,-51.32772 2.33047,-1.02635 4.19165,-0.86854 5.25873,-0.87249 58.26787,-0.21571 57.72473,1.12778 85.32848,1.00871 5.74136,-0.33051 5.15153,4.12186 6.85699,2.03688 1.28904,-32.90638 -17.19309,-66.96962 -51.3927,-88.61836 -23.85239,-15.09882 -52.09417,-22.2987 -80.05152,-22.0949 z"
         style="fill:#ff5722;fill-opacity:1;stroke:#000000;stroke-width:9.48724747;stroke-linecap:round;stroke-linejoin:round;stroke-miterlimit:4;stroke-opacity:0;stroke-dasharray:none;stroke-dashoffset:0;display:inline" />
    </g>
  </g>
  <g
     inkscape:groupmode="layer"
     id="layer6"
     inkscape:label="light"
     style="display:none">
    <path
       style="fill:#ffffff;fill-opacity:1;stroke:#000000;stroke-width:9.28107643;stroke-linecap:round;stroke-linejoin:round;stroke-miterlimit:4;stroke-opacity:0;stroke-dasharray:none;stroke-dashoffset:0;display:inline"
       d="m 315.72787,269.61566 c -18.87332,6.61643 -35.98439,16.86653 -49.5027,30.6033 l -0.50035,0.47818 c -18.06068,18.58933 -26.67317,40.52126 -26.45564,62.22272 l -39.52711,37.29778 c -4.38087,4.02748 -0.99221,7.46178 3.22096,10.60954 0.78342,-4.6656 5.90001,-6.45236 13.57181,-6.06687 -3.99854,-3.05539 -7.00809,-6.39671 -2.78316,-10.28079 l 39.52711,-37.29777 c -0.21755,-21.70147 8.39496,-43.63339 26.45564,-62.22273 l 0.50035,-0.47817 c 10.08429,-10.24729 22.16854,-18.55398 35.49309,-24.86519 z m 108.38684,89.17993 c -3.05882,1.45145 -6.35096,3.43393 -9.75669,5.73812 l 77.89717,0.14943 c 5.7453,-0.31608 5.2669,3.57794 5.97285,1.58396 0.0998,-2.43358 0.0941,-4.88522 -0.0312,-7.32208 l -74.08206,-0.14943 z m -196.29088,40.16683 c -6.00932,0.13212 -9.95811,1.93853 -10.78865,5.82778 19.38891,1.18904 54.6049,15.76276 79.27312,32.90452 9.77088,3.99008 26.09297,4.12705 35.89962,-3.58632 -7.7701,1.26132 -16.01624,0.24685 -21.89001,-2.1518 -26.08256,-18.12453 -64.00815,-33.40062 -82.49408,-32.99418 z"
       id="path3790-9-4-8"
       inkscape:connector-curvature="0" />
    <path
       style="fill:#ffffff;fill-opacity:1;stroke:#000000;stroke-width:12.4393425;stroke-linecap:round;stroke-linejoin:round;stroke-miterlimit:4;stroke-opacity:0;stroke-dasharray:none;stroke-dashoffset:0;display:inline"
       d="m 354.96875,658.03125 c -3.8765,2.31085 -7.40153,5.27904 -10.375,8.875 l -0.15625,0.1875 c -13.65457,16.72625 0.34038,36.31892 8.28125,58.4375 3.07281,8.55914 1.25045,23.15882 1.875,24.09375 l -1.46875,4.5 c -0.43886,1.35928 1.22866,2.5625 2.75,2.5625 l 36.75,0 c 1.52146,0 3.26395,-1.58099 3.21875,-3 l -0.0625,-1.84375 -33.40625,0 c -1.52134,0 -3.18886,-1.17197 -2.75,-2.53125 l 1.46875,-4.5 c -0.62455,-0.93493 1.22906,-15.53461 -1.84375,-24.09375 -7.94087,-22.11858 -21.96707,-41.7425 -8.3125,-58.46875 l 0.15625,-0.1875 c 1.19865,-1.44958 2.51071,-2.78828 3.875,-4.03125 z m 48.75,58.75 c -0.83497,0.59853 -1.6626,1.18215 -2.34375,1.625 l 0,0.125 c 0.79608,-0.60102 1.57827,-1.17065 2.34375,-1.75 z"
       id="rect3906-4"
       inkscape:connector-curvature="0" />
  </g>
</svg>
