<?xml version="1.0" encoding="UTF-8" standalone="no"?>
<!-- Created with Inkscape (http://www.inkscape.org/) -->

<svg
   xmlns:dc="http://purl.org/dc/elements/1.1/"
   xmlns:cc="http://creativecommons.org/ns#"
   xmlns:rdf="http://www.w3.org/1999/02/22-rdf-syntax-ns#"
   xmlns:svg="http://www.w3.org/2000/svg"
   xmlns="http://www.w3.org/2000/svg"
   xmlns:sodipodi="http://sodipodi.sourceforge.net/DTD/sodipodi-0.dtd"
   xmlns:inkscape="http://www.inkscape.org/namespaces/inkscape"
   width="744.09448819"
   height="1052.3622047"
   id="svg2"
   version="1.1"
   inkscape:version="0.48.5 r10040"
   sodipodi:docname="fitcoach_logo.svg">
  <defs
     id="defs4" />
  <sodipodi:namedview
     id="base"
     pagecolor="#ffffff"
     bordercolor="#666666"
     borderopacity="1.0"
     inkscape:pageopacity="0.0"
     inkscape:pageshadow="2"
     inkscape:zoom="0.63446243"
     inkscape:cx="393.67181"
     inkscape:cy="508.84654"
     inkscape:document-units="px"
     inkscape:current-layer="layer8"
     showgrid="false"
     showguides="false"
     inkscape:guide-bbox="true"
     inkscape:snap-grids="true"
     inkscape:window-width="1440"
     inkscape:window-height="785"
     inkscape:window-x="0"
     inkscape:window-y="0"
     inkscape:window-maximized="1">
    <sodipodi:guide
       orientation="0,1"
       position="-431.42857,1048.5714"
       id="guide2985" />
    <sodipodi:guide
       orientation="1,0"
       position="370,792.85714"
       id="guide2987" />
    <sodipodi:guide
       orientation="0,1"
       position="-148.57143,525.71429"
       id="guide2989" />
    <sodipodi:guide
       orientation="0,1"
       position="-574.28571,-2.8571429"
       id="guide2997" />
    <sodipodi:guide
       orientation="0,1"
       position="-411.42857,897.14286"
       id="guide3771" />
    <sodipodi:guide
       orientation="0,1"
       position="-394.28571,160"
       id="guide3773" />
    <sodipodi:guide
       orientation="1,0"
       position="737.14286,422.85714"
       id="guide3775" />
    <sodipodi:guide
       orientation="1,0"
       position="0,445.71429"
       id="guide3777" />
    <sodipodi:guide
       orientation="0,1"
       position="-1277.1429,725.71429"
       id="guide3779" />
    <sodipodi:guide
       orientation="0,1"
       position="428.30468,349.51278"
       id="guide3781" />
    <sodipodi:guide
       orientation="1,0"
       position="174.28571,897.14286"
       id="guide3783" />
    <sodipodi:guide
       orientation="1,0"
       position="551.42857,348.57143"
       id="guide3785" />
    <sodipodi:guide
       orientation="1,0"
       position="265,271.42857"
       id="guide3887" />
    <sodipodi:guide
       orientation="1,0"
       position="460.71429,257.85714"
       id="guide3889" />
    <sodipodi:guide
       orientation="1,0"
       position="150,570.71429"
       id="guide3891" />
    <sodipodi:guide
       orientation="1,0"
       position="575.71429,525.71429"
       id="guide3893" />
    <sodipodi:guide
       orientation="0,1"
       position="167.23214,507.41072"
       id="guide3895" />
    <sodipodi:guide
       orientation="0,1"
       position="-187.06964,669.92479"
       id="guide3954" />
  </sodipodi:namedview>
  <metadata
     id="metadata7">
    <rdf:RDF>
      <cc:Work
         rdf:about="">
        <dc:format>image/svg+xml</dc:format>
        <dc:type
           rdf:resource="http://purl.org/dc/dcmitype/StillImage" />
        <dc:title></dc:title>
      </cc:Work>
    </rdf:RDF>
  </metadata>
  <g
     inkscape:groupmode="layer"
     id="layer7"
     inkscape:label="shadow" />
  <g
     id="g3767"
     inkscape:groupmode="layer"
     inkscape:label="background_line"
     style="display:none">
    <path
       transform="matrix(1.1697001,0,0,0.96880389,-84.512054,32.295084)"
       sodipodi:open="true"
       sodipodi:end="10.075763"
       sodipodi:start="3.7987667"
       d="m 142.00669,279.11528 a 311.42856,377.14285 0 1 1 -1.17271,1.85239"
       sodipodi:ry="377.14285"
       sodipodi:rx="311.42856"
       sodipodi:cy="509.50504"
       sodipodi:cx="388.57144"
       id="path3769"
       style="fill:#090606;fill-opacity:1;stroke:#000000;stroke-width:9.39387512;stroke-linecap:round;stroke-linejoin:round;stroke-miterlimit:4;stroke-opacity:1;stroke-dasharray:none;stroke-dashoffset:0"
       sodipodi:type="arc" />
  </g>
  <g
     inkscape:label="background"
     inkscape:groupmode="layer"
     id="layer1"
     style="display:inline" />
  <g
     inkscape:label="head_line"
     id="g3792"
     inkscape:groupmode="layer"
     style="display:none">
    <path
       transform="matrix(0.89352795,0,0,0.87017448,2.3770837,-24.735614)"
       sodipodi:open="true"
       sodipodi:end="10.075763"
       sodipodi:start="3.7987667"
       d="m 300.58752,381.12442 a 140,140 0 1 1 -0.52718,0.68763"
       sodipodi:ry="140"
       sodipodi:rx="140"
       sodipodi:cy="466.64789"
       sodipodi:cx="411.42856"
       id="path3794"
       style="fill:#ffffff;fill-opacity:0;stroke:#000000;stroke-width:11.34077549;stroke-linecap:round;stroke-linejoin:round;stroke-miterlimit:4;stroke-opacity:1;stroke-dasharray:none;stroke-dashoffset:0"
       sodipodi:type="arc" />
  </g>
  <g
     inkscape:groupmode="layer"
     id="layer2"
     inkscape:label="head"
     style="display:inline" />
  <g
     inkscape:label="body_line"
     id="g3897"
     inkscape:groupmode="layer"
     style="display:none">
    <path
       sodipodi:nodetypes="cssssscsssccc"
       inkscape:connector-curvature="0"
       id="path3899"
       d="m 543.35814,847.48454 32.38543,-281.27196 c 0.0312,-0.27114 -0.95265,-3.90296 -2.65272,-6.56749 -1.73014,-2.71165 -4.18843,-4.45672 -4.38287,-4.6378 -0.17483,-0.16281 -3.42937,-2.51915 -7.19541,-3.80033 -4.53873,-1.54406 -9.73517,-2.04213 -10.05807,-2.04213 l -380.67736,0 c -4.05292,0 -5.15965,0.90646 -7.3741,1.75445 -2.52145,0.96555 -4.01926,2.16605 -5.39551,3.23513 -1.28129,0.99534 -3.27952,3.23274 -4.34856,4.663 -1.7067,2.2834 -3.10536,4.21324 -3.59896,7.39517 l 36.41075,274.75898 c 122.85108,63.16416 244.02278,62.88067 356.88738,6.51298 z"
       style="fill:#960016;fill-opacity:0;stroke:#000000;stroke-width:9.65151691;stroke-linecap:round;stroke-linejoin:round;stroke-miterlimit:4;stroke-opacity:1;stroke-dasharray:none;stroke-dashoffset:0;display:inline" />
  </g>
  <g
     inkscape:groupmode="layer"
     id="layer3"
     inkscape:label="body"
     style="display:inline" />
  <g
     inkscape:groupmode="layer"
     id="layer4"
     inkscape:label="whistle"
     style="display:none">
    <path
       style="fill:#727272;fill-opacity:0.99470903;stroke:#000000;stroke-width:10.17500019;stroke-linecap:round;stroke-linejoin:round;stroke-miterlimit:4;stroke-opacity:0;stroke-dasharray:none;stroke-dashoffset:0;display:inline"
       d="M 255.44735,548.83011 362.4375,664.81234 c 0.7931,0.87011 2.2113,1.1161 3.1875,0.53125 l 2.375,-1.46875 2.375,1.46875 c 0.9762,0.58485 2.3944,0.33886 3.1875,-0.53125 L 480.9062,548.123 l -28.76951,0.35355 -78.60783,90.15254 c -3.56671,4.45106 -8.6249,4.71493 -12.59993,-0.27202 l -77.06562,-89.88052 z"
       id="rect3967"
       inkscape:connector-curvature="0"
       sodipodi:nodetypes="cccccccccccc" />
    <path
       style="fill:#ff5722;fill-opacity:1;stroke:#000000;stroke-width:11.98213768;stroke-linecap:round;stroke-linejoin:round;stroke-miterlimit:4;stroke-opacity:0;stroke-dasharray:none;stroke-dashoffset:0;display:inline"
       d="m 367.77646,653.46862 c -3.60024,-0.055 -7.19296,0.40873 -10.66269,1.37631 -3.45727,0.9641 -6.79245,2.42847 -9.89133,4.37849 -3.74776,2.35834 -7.14991,5.42702 -10.00443,9.18017 l -0.1487,0.18857 c -12.61416,16.79932 0.32512,36.48888 7.66094,58.70409 2.83868,8.59653 1.13584,23.25524 1.71281,24.19425 l -1.3438,4.52401 c -0.40542,1.36522 1.12254,2.56458 2.52796,2.56458 l 33.95959,0 c 1.40553,0 3.01771,-1.59378 2.97595,-3.01899 l -0.8959,-30.57823 c 3.09087,-2.18476 8.32879,-6.70197 11.46285,-9.16922 14.11608,-11.1131 11.72861,-41.3911 -4.82476,-54.34855 -6.7247,-5.26395 -14.64223,-7.87508 -22.52849,-7.99548 z"
       id="rect3906-1"
       inkscape:connector-curvature="0"
       sodipodi:nodetypes="sssccscsssscsss" />
  </g>
  <g
     inkscape:label="whistle copy"
     id="g3974"
     inkscape:groupmode="layer"
     style="display:inline" />
  <g
     inkscape:groupmode="layer"
     id="layer5"
     inkscape:label="cap_1"
     style="display:none">
    <path
       style="fill:#ff5722;fill-opacity:1;stroke:#000000;stroke-width:9.48724747;stroke-linecap:round;stroke-linejoin:round;stroke-miterlimit:4;stroke-opacity:0;stroke-dasharray:none;stroke-dashoffset:0;display:inline"
       d="m 364.48694,258.07664 c -38.31194,0.27928 -76.06528,14.45854 -101.2858,41.27468 l -0.5011,0.51764 c -18.0483,19.43773 -26.65067,42.36681 -26.43329,65.05871 l -39.49328,38.98618 c -4.37786,4.21129 -0.98447,7.7969 3.22581,11.08832 2.75036,-17.13883 58.51533,2.84686 93.26816,28.11582 10.58825,4.5243 28.87487,4.28242 38.20926,-5.99368 l 17.41335,-19.17979 c 2.33976,-2.2507 13.1405,-13.76703 29.45293,-24.77899 27.68243,1.42402 45.93942,-0.89215 55.93816,-1.23053 10.23037,-0.34621 23.13675,-1.21887 51.49446,-3.22285 5.92985,-0.61324 7.69614,-0.49615 9.4016,-2.58113 6.56677,-32.15242 -16.43913,-84.31074 -50.63874,-105.95948 -23.85239,-15.09882 -52.09417,-22.2987 -80.05152,-22.0949 z"
       id="path3790-9-4"
       inkscape:connector-curvature="0"
       sodipodi:nodetypes="scccccccccsccss" />
  </g>
  <g
     inkscape:groupmode="layer"
     id="layer6"
     inkscape:label="cap_1_light"
     style="display:none">
    <path
       style="fill:#d4491e;fill-opacity:1;stroke:#000000;stroke-width:9.43409061;stroke-linecap:round;stroke-linejoin:round;stroke-miterlimit:4;stroke-opacity:0;stroke-dasharray:none;stroke-dashoffset:0;display:inline"
       d="m 311.59851,267.07606 c -18.85185,6.84418 -35.94076,17.46956 -49.44369,31.67917 l -0.49943,0.48489 c -18.04014,19.22921 -26.65593,41.91197 -26.43864,64.36043 l -39.45507,38.59686 c -4.37589,4.16612 -0.99329,7.7023 3.21509,10.95841 0.78252,-4.8262 5.88399,-6.66994 13.54707,-6.27118 -3.99399,-3.16056 -6.99821,-6.61737 -2.77809,-10.63515 l 39.48628,-38.56454 c -0.2173,-22.44847 8.3673,-45.16354 26.40743,-64.39276 l 0.49943,-0.48488 c 10.07282,-10.60002 22.15023,-19.20279 35.45962,-25.73125 z m -87.80625,133.82833 c -6.00249,0.13667 -9.9394,1.98945 -10.76899,6.01257 19.36685,1.22997 54.55091,16.30714 79.19107,34.03895 9.75976,4.12742 26.06991,4.26142 35.8654,-3.71746 -7.76126,1.30474 -16.01424,0.25075 -21.88133,-2.23047 -26.05289,-18.74841 -63.94125,-34.52402 -82.40615,-34.10359 z"
       id="path3790-9-4-8"
       inkscape:connector-curvature="0" />
  </g>
  <g
     inkscape:groupmode="layer"
     id="layer8"
     inkscape:label="cap_2"
     style="display:inline">
    <g
       id="g3035"
       inkscape:export-filename="/Users/wilmor24/dev/fitcoach/art/ic_launcher_web.png"
       inkscape:export-xdpi="90"
       inkscape:export-ydpi="90"
       transform="matrix(0.75203861,0,0,0.74606182,6.6203878,223.44606)">
      <path
         transform="matrix(1.0769305,0,0,0.88928412,-50.90787,87.439569)"
         sodipodi:open="true"
         sodipodi:end="10.075763"
         sodipodi:start="3.7987667"
         d="M 142.00669,279.11528 C 247.0767,114.20737 442.64357,83.672103 578.81752,210.91285 714.99147,338.1536 740.2062,574.98688 635.13619,739.89479 530.06619,904.8027 334.49932,935.33797 198.32536,808.09722 62.746967,681.41296 37.064594,445.93526 140.83398,280.96767"
         sodipodi:ry="377.14285"
         sodipodi:rx="311.42856"
         sodipodi:cy="509.50504"
         sodipodi:cx="388.57144"
         id="path2995-4"
         style="fill:#727272;fill-opacity:0.66666667;stroke:#000000;stroke-width:9.39387512;stroke-linecap:round;stroke-linejoin:round;stroke-miterlimit:4;stroke-opacity:0;stroke-dasharray:none;stroke-dashoffset:0;display:inline"
         sodipodi:type="arc" />
      <path
         transform="matrix(1.0769305,0,0,0.88928412,-51.760471,81.20606)"
         sodipodi:open="true"
         sodipodi:end="10.075763"
         sodipodi:start="3.7987667"
         d="M 142.00669,279.11528 C 247.0767,114.20737 442.64357,83.672103 578.81752,210.91285 714.99147,338.1536 740.2062,574.98688 635.13619,739.89479 530.06619,904.8027 334.49932,935.33797 198.32536,808.09722 62.746967,681.41296 37.064594,445.93526 140.83398,280.96767"
         sodipodi:ry="377.14285"
         sodipodi:rx="311.42856"
         sodipodi:cy="509.50504"
         sodipodi:cx="388.57144"
         id="path2995"
         style="fill:#009688;fill-opacity:1;stroke:#000000;stroke-width:9.39387512;stroke-linecap:round;stroke-linejoin:round;stroke-miterlimit:4;stroke-opacity:0;stroke-dasharray:none;stroke-dashoffset:0;display:inline"
         sodipodi:type="arc" />
      <path
         transform="matrix(0.89352795,0,0,0.87017448,2.3770837,-24.735614)"
         sodipodi:open="true"
         sodipodi:end="10.075763"
         sodipodi:start="3.7987667"
         d="m 300.58752,381.12442 c 47.23331,-61.21582 135.14869,-72.55088 196.36451,-25.31757 61.21581,47.23331 72.55088,135.14869 25.31757,196.36451 -47.23331,61.21581 -135.1487,72.55088 -196.36451,25.31757 C 264.957,530.46219 253.41171,443.05002 300.06034,381.81205"
         sodipodi:ry="140"
         sodipodi:rx="140"
         sodipodi:cy="466.64789"
         sodipodi:cx="411.42856"
         id="path3790"
         style="fill:#ffffff;fill-opacity:1;stroke:#000000;stroke-width:11.34077549;stroke-linecap:round;stroke-linejoin:round;stroke-miterlimit:4;stroke-opacity:0;stroke-dasharray:none;stroke-dashoffset:0;display:inline"
         sodipodi:type="arc" />
      <path
         sodipodi:nodetypes="cssssscsssccc"
         inkscape:connector-curvature="0"
         id="path3885"
         d="m 543.33332,820.53764 31.14353,-250.52788 c 0.28246,-2.27221 0.28493,-3.951 -0.97297,-7.44383 -1.0994,-3.05271 -1.99053,-4.77654 -4.38227,-7.16976 -2.42839,-2.4299 -3.83232,-3.62037 -7.54797,-4.81938 -3.65684,-1.18003 -6.46326,-1.62447 -10.14507,-1.62533 l -378.68046,-0.0884 c -4.05237,0 -7.97111,0.5259 -10.22924,1.26089 -3.7711,1.22744 -5.524,2.16353 -7.83932,4.60077 -1.9428,2.04512 -2.55346,3.47236 -3.21407,7.10429 -0.58457,3.21386 -0.39783,4.38381 -0.36102,7.78169 l 35.39057,248.57642 c 108.69204,68.18429 240.45368,70.72574 356.83829,2.35052 z"
         style="fill:#ffffff;fill-opacity:1;stroke:#000000;stroke-width:9.71006775;stroke-linecap:round;stroke-linejoin:round;stroke-miterlimit:4;stroke-opacity:0;stroke-dasharray:none;stroke-dashoffset:0;display:inline" />
      <path
         style="fill:#727272;fill-opacity:0.99470903;stroke:#000000;stroke-width:10.17500019;stroke-linecap:round;stroke-linejoin:round;stroke-miterlimit:4;stroke-opacity:0;stroke-dasharray:none;stroke-dashoffset:0;display:inline"
         d="M 255.44735,548.83011 362.4375,664.81234 c 0.7931,0.87011 2.2113,1.1161 3.1875,0.53125 l 2.375,-1.46875 2.375,1.46875 c 0.9762,0.58485 2.3944,0.33886 3.1875,-0.53125 L 480.9062,548.123 l -28.76951,0.35355 -78.60783,90.15254 c -3.56671,4.45106 -8.6249,4.71493 -12.59993,-0.27202 l -77.06562,-89.88052 z"
         id="path3976"
         inkscape:connector-curvature="0"
         sodipodi:nodetypes="cccccccccccc" />
      <path
         style="fill:#d4491e;fill-opacity:1;stroke:#000000;stroke-width:12.39968872;stroke-linecap:round;stroke-linejoin:round;stroke-miterlimit:4;stroke-opacity:0;stroke-dasharray:none;stroke-dashoffset:0;display:inline"
         d="m 361.88178,654.75505 c -12.48298,-0.17401 -24.88234,4.90845 -33.09557,14.76791 l -0.16104,0.18646 c -13.66146,16.6114 0.3521,36.08071 8.29698,58.04742 3.07436,8.50037 1.23015,22.9951 1.85501,23.92361 l -1.45536,4.4734 c -0.43908,1.34995 1.21573,2.5359 2.73784,2.5359 l 36.77908,0 c 1.52223,0 3.26826,-1.57596 3.22303,-2.98522 l -0.97028,-30.23618 c 3.34749,-2.16033 9.02028,-6.627 12.41456,-9.06666 15.28806,-10.98878 13.36578,-44.43501 -4.56185,-57.24763 -6.77772,-4.84394 -9.75138,-5.13709 -17.77798,-5.14519 -0.5984,-6e-4 -6.69185,0.75444 -7.28442,0.74618 z"
         id="path3978"
         inkscape:connector-curvature="0"
         sodipodi:nodetypes="sccscsssscssss" />
      <path
         style="fill:#ff5722;fill-opacity:1;stroke:#000000;stroke-width:11.98213768;stroke-linecap:round;stroke-linejoin:round;stroke-miterlimit:4;stroke-opacity:0;stroke-dasharray:none;stroke-dashoffset:0;display:inline"
         d="m 375.77646,653.46862 c -3.60024,-0.055 -7.19296,0.40873 -10.66269,1.37631 -3.45727,0.9641 -6.79245,2.42847 -9.89133,4.37849 -3.74776,2.35834 -7.14991,5.42702 -10.00443,9.18017 l -0.1487,0.18857 c -12.61416,16.79932 0.32512,36.48888 7.66094,58.70409 2.83868,8.59653 1.13584,23.25524 1.71281,24.19425 l -1.3438,4.52401 c -0.40542,1.36522 1.12254,2.56458 2.52796,2.56458 l 33.95959,0 c 1.40553,0 3.01771,-1.59378 2.97595,-3.01899 l -0.8959,-30.57823 c 3.09087,-2.18476 8.32879,-6.70197 11.46285,-9.16922 14.11608,-11.1131 11.72861,-41.3911 -4.82476,-54.34855 -6.7247,-5.26395 -14.64223,-7.87508 -22.52849,-7.99548 z"
         id="path3980"
         inkscape:connector-curvature="0"
         sodipodi:nodetypes="sssccscsssscsss" />
      <path
         transform="matrix(0.91488677,0,0,0.78178105,-7.8868036,1.6986962)"
         sodipodi:end="6.4656819"
         sodipodi:start="2.9409827"
         d="m 274.23623,494.54528 c -15.40731,-75.76923 33.5257,-149.68242 109.29494,-165.08972 75.76923,-15.40731 149.68241,33.5257 165.08972,109.29494 3.57349,17.57352 3.73739,35.66996 0.48278,53.30533 L 411.42856,466.64789 z"
         sodipodi:ry="140"
         sodipodi:rx="140"
         sodipodi:cy="466.64789"
         sodipodi:cx="411.42856"
         id="path3790-0-9"
         style="fill:#ff5722;fill-opacity:1;stroke:#000000;stroke-width:11.34077549;stroke-linecap:round;stroke-linejoin:round;stroke-miterlimit:4;stroke-opacity:0;stroke-dasharray:none;stroke-dashoffset:0;display:inline"
         sodipodi:type="arc" />
      <path
         sodipodi:nodetypes="ccccssssccccssssccc"
         inkscape:connector-curvature="0"
         id="path3790-0"
         d="m 391.20458,354.27872 c -16.29029,-1.23787 -33.64658,-2.05485 -51.1147,0.46546 -18.52133,2.93805 -36.20945,4.9022 -54.95679,10.34826 -9.94955,3.75542 -32.87085,17.70219 -42.01787,23.26601 3.18681,-0.20421 5.90606,-0.16428 9.80674,9.00177 2.37236,5.57471 5.57822,22.34237 6.85242,26.79572 1.18047,4.12574 3.16215,8.6461 5.95098,11.10717 2.58461,2.28075 4.70113,2.73967 7.34971,2.05168 4.94435,-1.28432 -1.83479,-2.42957 11.93512,-7.5933 12.86939,-4.08787 24.90785,-9.07482 55.48453,-10.49055 21.97268,-1.2661 34.66588,-0.98505 50.58891,-0.59099 23.17648,1.72261 39.44308,1.77305 56.27987,7.09218 7.7269,3.17487 18.8289,9.20148 19.6362,11.08154 1.4816,3.45086 7.489,3.3168 9.7019,-0.10706 1.7345,-2.68359 1.971,-5.20236 3.423,-14.49549 0.3209,-2.05401 3.1475,-19.42657 4.181,-23.83442 1.9886,-8.48164 2.1129,-12.07714 10.0656,-12.15113 -4.3844,-2.85249 -42.6068,-21.6041 -54.01,-24.18937 -18.15345,-3.35199 -27.3777,-5.91558 -49.15662,-7.75748 z"
         style="fill:#d4491e;fill-opacity:1;stroke:#000000;stroke-width:8.94324589;stroke-linecap:round;stroke-linejoin:round;stroke-miterlimit:4;stroke-opacity:0;stroke-dasharray:none;stroke-dashoffset:0;display:inline" />
      <path
         inkscape:transform-center-y="-74.467976"
         inkscape:transform-center-x="-295.40553"
         sodipodi:nodetypes="ccccssssccccssssccc"
         inkscape:connector-curvature="0"
         id="path3790-0-4"
         d="m 391.97229,405.34648 c -16.44237,-0.61467 -32.58185,-0.65259 -51.34283,0.46543 -17.98897,1.7695 -21.60757,1.70817 -35.63967,4.5834 -9.94947,2.50897 -9.06095,2.67631 -20.64154,6.05883 -2.5734,1.12122 -8.5639,2.93352 -10.57461,4.58409 l -5.39957,4.43286 c -1.43718,1.17982 -2.636,3.34386 -2.07523,5.64029 1.06182,4.34876 3.126,4.34876 5.86263,4.34876 4.94425,0 -0.22947,-4.19551 13.54027,-9.35924 12.86948,-4.08789 24.90799,-9.07482 55.48464,-10.49055 21.97269,-1.26609 34.66589,-0.98505 50.58893,-0.591 23.17648,1.72263 39.44304,1.77304 56.27979,7.09218 7.7269,3.17488 18.459,9.41888 19.6362,11.08155 1.6051,2.26706 2.6943,4.23538 5.7474,2.26706 2.5574,-1.64877 2.1599,-4.52849 1.5856,-6.56128 -0.222,-0.78615 -0.6339,-2.4707 -1.8322,-4.12055 -1.0367,-1.42706 -2.7439,-2.91066 -5.3322,-4.2598 -4.3844,-2.85248 -16.1643,-7.01061 -27.5674,-9.59589 -18.15348,-3.35197 -26.54127,-3.73423 -48.32021,-5.57614 z"
         style="fill:#ff5722;fill-opacity:1;stroke:#000000;stroke-width:8.94324589;stroke-linecap:round;stroke-linejoin:round;stroke-miterlimit:4;stroke-opacity:0;stroke-dasharray:none;stroke-dashoffset:0;display:inline" />
    </g>
  </g>
</svg>
